<svg width="33" height="32" viewBox="0 0 33 32" fill="none" xmlns="http://www.w3.org/2000/svg">
<rect x="0.14209" width="32" height="32" rx="16" fill="url(#paint0_linear_58_741)" fill-opacity="0.1"/>
<rect x="0.54209" y="0.4" width="31.2" height="31.2" rx="15.6" stroke="url(#paint1_linear_58_741)" stroke-opacity="0.24" stroke-width="0.8"/>
<path d="M19.8878 15.1668C19.6012 15.1668 19.3746 14.9336 19.3746 14.6536C19.3746 14.407 19.128 13.8938 18.7148 13.4473C18.3082 13.0141 17.8617 12.7608 17.4884 12.7608C17.2018 12.7608 16.9752 12.5275 16.9752 12.2476C16.9752 11.9676 17.2085 11.7344 17.4884 11.7344C18.1549 11.7344 18.8547 12.0943 19.4679 12.7408C20.0411 13.3473 20.4077 14.1004 20.4077 14.647C20.4077 14.9336 20.1744 15.1668 19.8878 15.1668Z" fill="url(#paint2_linear_58_741)"/>
<path d="M22.2938 15.1668C22.0072 15.1668 21.7806 14.9336 21.7806 14.6536C21.7806 12.2876 19.8544 10.368 17.495 10.368C17.2084 10.368 16.9818 10.1348 16.9818 9.85483C16.9818 9.5749 17.2084 9.33496 17.4884 9.33496C20.421 9.33496 22.807 11.721 22.807 14.6536C22.807 14.9336 22.5737 15.1668 22.2938 15.1668Z" fill="url(#paint3_linear_58_741)"/>
<path d="M16.0021 17.4729L13.8226 19.6524C13.5827 19.4391 13.3494 19.2192 13.1228 18.9925C12.4363 18.2994 11.8165 17.5729 11.2633 16.8131C10.7167 16.0533 10.2769 15.2935 9.95693 14.5403C9.63701 13.7805 9.47705 13.054 9.47705 12.3609C9.47705 11.9076 9.55703 11.4744 9.71699 11.0745C9.87695 10.668 10.1302 10.2947 10.4835 9.96147C10.91 9.54158 11.3766 9.33496 11.8698 9.33496C12.0564 9.33496 12.243 9.37495 12.4096 9.45493C12.5829 9.53491 12.7362 9.65488 12.8562 9.82817L14.4025 12.0076C14.5225 12.1742 14.6091 12.3275 14.6691 12.4742C14.7291 12.6141 14.7624 12.7541 14.7624 12.8807C14.7624 13.0407 14.7157 13.2007 14.6224 13.354C14.5358 13.5072 14.4091 13.6672 14.2492 13.8272L13.7426 14.3537C13.6693 14.427 13.636 14.5137 13.636 14.6203C13.636 14.6736 13.6427 14.7203 13.656 14.7736C13.676 14.8269 13.696 14.8669 13.7093 14.9069C13.8293 15.1268 14.0359 15.4134 14.3292 15.76C14.6291 16.1066 14.949 16.4598 15.2956 16.8131C15.5355 17.0464 15.7688 17.273 16.0021 17.4729Z" fill="url(#paint4_linear_58_741)"/>
<path d="M22.7871 20.2189C22.7871 20.4055 22.7538 20.5988 22.6871 20.7854C22.6671 20.8387 22.6471 20.8921 22.6205 20.9454C22.5072 21.1853 22.3605 21.4119 22.1672 21.6252C21.8407 21.9851 21.4807 22.2451 21.0742 22.4117C21.0675 22.4117 21.0608 22.4184 21.0542 22.4184C20.6609 22.5783 20.2344 22.665 19.7745 22.665C19.0947 22.665 18.3682 22.505 17.6017 22.1784C16.8352 21.8518 16.0688 21.4119 15.309 20.8587C15.049 20.6655 14.7891 20.4722 14.5425 20.2656L16.7219 18.0861C16.9086 18.2261 17.0752 18.3327 17.2151 18.406C17.2485 18.4194 17.2885 18.4393 17.3351 18.4593C17.3884 18.4793 17.4418 18.486 17.5017 18.486C17.615 18.486 17.7017 18.446 17.775 18.3727L18.2815 17.8728C18.4482 17.7062 18.6081 17.5796 18.7614 17.4996C18.9147 17.4063 19.068 17.3596 19.2346 17.3596C19.3613 17.3596 19.4946 17.3863 19.6412 17.4463C19.7878 17.5062 19.9411 17.5929 20.1078 17.7062L22.3139 19.2725C22.4872 19.3924 22.6071 19.5324 22.6804 19.699C22.7471 19.8657 22.7871 20.0323 22.7871 20.2189Z" fill="url(#paint5_linear_58_741)"/>
<defs>
<linearGradient id="paint0_linear_58_741" x1="0.14209" y1="16" x2="32.1421" y2="16" gradientUnits="userSpaceOnUse">
<stop stop-color="#2587E3"/>
<stop offset="1" stop-color="#54D923"/>
</linearGradient>
<linearGradient id="paint1_linear_58_741" x1="0.14209" y1="16" x2="32.1421" y2="16" gradientUnits="userSpaceOnUse">
<stop stop-color="#2587E3"/>
<stop offset="1" stop-color="#54D923"/>
</linearGradient>
<linearGradient id="paint2_linear_58_741" x1="16.9752" y1="13.4506" x2="20.4077" y2="13.4506" gradientUnits="userSpaceOnUse">
<stop stop-color="#2587E3"/>
<stop offset="1" stop-color="#54D923"/>
</linearGradient>
<linearGradient id="paint3_linear_58_741" x1="16.9818" y1="12.2509" x2="22.807" y2="12.2509" gradientUnits="userSpaceOnUse">
<stop stop-color="#2587E3"/>
<stop offset="1" stop-color="#54D923"/>
</linearGradient>
<linearGradient id="paint4_linear_58_741" x1="9.47705" y1="14.4937" x2="16.0021" y2="14.4937" gradientUnits="userSpaceOnUse">
<stop stop-color="#2587E3"/>
<stop offset="1" stop-color="#54D923"/>
</linearGradient>
<linearGradient id="paint5_linear_58_741" x1="14.5425" y1="20.0123" x2="22.7871" y2="20.0123" gradientUnits="userSpaceOnUse">
<stop stop-color="#2587E3"/>
<stop offset="1" stop-color="#54D923"/>
</linearGradient>
</defs>
</svg>
