<svg width="37" height="38" viewBox="0 0 37 38" fill="none" xmlns="http://www.w3.org/2000/svg">
<circle cx="11" cy="11" r="11" fill="#2587E3" fill-opacity="0.2"/>
<path opacity="0.4" d="M25.0133 25.6667V35.32L9.01335 35.3467V25.6667L9 23.6667V15.4267C9 14.5333 9.45335 13.7066 10.1867 13.2133L15.52 9.65331C16.4134 9.05331 17.5866 9.05331 18.48 9.65331L23.8133 13.2133C24.56 13.7066 25 14.5333 25 15.4267V23.6667L25.0133 25.6667Z" fill="#2587E3"/>
<path d="M34.3334 34.3334H32.6401V30.3334C33.9067 29.92 34.8267 28.7334 34.8267 27.3334V24.6667C34.8267 22.92 33.4001 21.4933 31.6534 21.4933C29.9067 21.4933 28.4801 22.92 28.4801 24.6667V27.3334C28.4801 28.72 29.3867 29.8933 30.6267 30.32V34.3334H7.66675C7.12008 34.3334 6.66675 34.7867 6.66675 35.3334C6.66675 35.88 7.12008 36.3334 7.66675 36.3334H31.5734C31.6001 36.3334 31.6134 36.3467 31.6401 36.3467C31.6667 36.3467 31.6801 36.3334 31.7068 36.3334H34.3334C34.8801 36.3334 35.3334 35.88 35.3334 35.3334C35.3334 34.7867 34.8801 34.3334 34.3334 34.3334Z" fill="#2587E3"/>
<path d="M25.0133 25.6667H9.01335L9 23.6667H25L25.0133 25.6667Z" fill="#2587E3"/>
<path d="M17 36.3333C16.4533 36.3333 16 35.88 16 35.3333V30.3333C16 29.7866 16.4533 29.3333 17 29.3333C17.5467 29.3333 18 29.7866 18 30.3333V35.3333C18 35.88 17.5467 36.3333 17 36.3333Z" fill="#2587E3"/>
<path d="M17.0001 20.3334C18.2887 20.3334 19.3334 19.2887 19.3334 18C19.3334 16.7114 18.2887 15.6667 17.0001 15.6667C15.7114 15.6667 14.6667 16.7114 14.6667 18C14.6667 19.2887 15.7114 20.3334 17.0001 20.3334Z" fill="#2587E3"/>
</svg>
