<svg width="33" height="32" viewBox="0 0 33 32" fill="none" xmlns="http://www.w3.org/2000/svg">
<rect x="0.426514" width="32" height="32" rx="16" fill="url(#paint0_linear_58_749)" fill-opacity="0.1"/>
<rect x="0.826514" y="0.4" width="31.2" height="31.2" rx="15.6" stroke="url(#paint1_linear_58_749)" stroke-opacity="0.24" stroke-width="0.8"/>
<path d="M23.0932 18.7933C23.0932 21.2199 21.6466 22.6666 19.2199 22.6666H18.4266C18.0599 22.6666 17.7599 22.3666 17.7599 21.9999V18.1533C17.7599 17.9733 17.9065 17.8199 18.0865 17.8199L19.2599 17.7999C19.3532 17.7933 19.4332 17.7266 19.4532 17.6333L19.6866 16.3599C19.7066 16.2399 19.6132 16.1266 19.4866 16.1266L18.0665 16.1466C17.8799 16.1466 17.7332 15.9999 17.7266 15.8199L17.6999 14.1866C17.6999 14.0799 17.7865 13.9866 17.8999 13.9866L19.4999 13.9599C19.6132 13.9599 19.6999 13.8733 19.6999 13.7599L19.6732 12.1599C19.6732 12.0466 19.5866 11.9599 19.4732 11.9599L17.6732 11.9866C16.5666 12.0066 15.6866 12.9133 15.7066 14.0199L15.7399 15.8533C15.7466 16.0399 15.5999 16.1866 15.4132 16.1933L14.6132 16.2066C14.4999 16.2066 14.4132 16.2932 14.4132 16.4066L14.4332 17.6733C14.4332 17.7866 14.5199 17.8733 14.6332 17.8733L15.4332 17.8599C15.6199 17.8599 15.7665 18.0066 15.7732 18.1866L15.8332 21.9866C15.8399 22.3599 15.5399 22.6666 15.1665 22.6666H13.6332C11.2066 22.6666 9.75989 21.2199 9.75989 18.7866V13.2066C9.75989 10.7799 11.2066 9.33325 13.6332 9.33325H19.2199C21.6466 9.33325 23.0932 10.7799 23.0932 13.2066V18.7933Z" fill="url(#paint2_linear_58_749)"/>
<defs>
<linearGradient id="paint0_linear_58_749" x1="0.426514" y1="16" x2="32.4265" y2="16" gradientUnits="userSpaceOnUse">
<stop stop-color="#2587E3"/>
<stop offset="1" stop-color="#54D923"/>
</linearGradient>
<linearGradient id="paint1_linear_58_749" x1="0.426514" y1="16" x2="32.4265" y2="16" gradientUnits="userSpaceOnUse">
<stop stop-color="#2587E3"/>
<stop offset="1" stop-color="#54D923"/>
</linearGradient>
<linearGradient id="paint2_linear_58_749" x1="9.75989" y1="15.9999" x2="23.0932" y2="15.9999" gradientUnits="userSpaceOnUse">
<stop stop-color="#2587E3"/>
<stop offset="1" stop-color="#54D923"/>
</linearGradient>
</defs>
</svg>
