<svg width="33" height="32" viewBox="0 0 33 32" fill="none" xmlns="http://www.w3.org/2000/svg">
<rect x="0.284302" width="32" height="32" rx="16" fill="url(#paint0_linear_58_747)" fill-opacity="0.1"/>
<rect x="0.684302" y="0.4" width="31.2" height="31.2" rx="15.6" stroke="url(#paint1_linear_58_747)" stroke-opacity="0.24" stroke-width="0.8"/>
<path d="M19.0777 9.33325H13.491C11.0643 9.33325 9.61768 10.7799 9.61768 13.2066V18.7866C9.61768 21.2199 11.0643 22.6666 13.491 22.6666H19.071C21.4977 22.6666 22.9443 21.2199 22.9443 18.7933V13.2066C22.951 10.7799 21.5043 9.33325 19.0777 9.33325ZM16.2843 18.5866C14.8577 18.5866 13.6977 17.4266 13.6977 15.9999C13.6977 14.5733 14.8577 13.4133 16.2843 13.4133C17.711 13.4133 18.871 14.5733 18.871 15.9999C18.871 17.4266 17.711 18.5866 16.2843 18.5866ZM20.231 12.5866C20.1977 12.6666 20.151 12.7399 20.091 12.8066C20.0243 12.8666 19.951 12.9133 19.871 12.9466C19.791 12.9799 19.7043 12.9999 19.6177 12.9999C19.4377 12.9999 19.271 12.9333 19.1443 12.8066C19.0843 12.7399 19.0377 12.6666 19.0043 12.5866C18.971 12.5066 18.951 12.4199 18.951 12.3333C18.951 12.2466 18.971 12.1599 19.0043 12.0799C19.0377 11.9933 19.0843 11.9266 19.1443 11.8599C19.2977 11.7066 19.531 11.6333 19.7443 11.6799C19.791 11.6866 19.831 11.6999 19.871 11.7199C19.911 11.7333 19.951 11.7533 19.991 11.7799C20.0243 11.7999 20.0577 11.8333 20.091 11.8599C20.151 11.9266 20.1977 11.9933 20.231 12.0799C20.2643 12.1599 20.2843 12.2466 20.2843 12.3333C20.2843 12.4199 20.2643 12.5066 20.231 12.5866Z" fill="url(#paint2_linear_58_747)"/>
<defs>
<linearGradient id="paint0_linear_58_747" x1="0.284302" y1="16" x2="32.2843" y2="16" gradientUnits="userSpaceOnUse">
<stop stop-color="#2587E3"/>
<stop offset="1" stop-color="#54D923"/>
</linearGradient>
<linearGradient id="paint1_linear_58_747" x1="0.284302" y1="16" x2="32.2843" y2="16" gradientUnits="userSpaceOnUse">
<stop stop-color="#2587E3"/>
<stop offset="1" stop-color="#54D923"/>
</linearGradient>
<linearGradient id="paint2_linear_58_747" x1="9.61768" y1="15.9999" x2="22.9444" y2="15.9999" gradientUnits="userSpaceOnUse">
<stop stop-color="#2587E3"/>
<stop offset="1" stop-color="#54D923"/>
</linearGradient>
</defs>
</svg>
