<svg width="37" height="38" viewBox="0 0 37 38" fill="none" xmlns="http://www.w3.org/2000/svg">
<circle cx="11" cy="11" r="11" fill="#2587E3" fill-opacity="0.2"/>
<path opacity="0.4" d="M28.3734 16.36C28.28 16.3467 28.1867 16.3467 28.0934 16.36C26.0267 16.2934 24.3867 14.6 24.3867 12.52C24.3867 10.4 26.1067 8.66669 28.2401 8.66669C30.3601 8.66669 32.0934 10.3867 32.0934 12.52C32.0801 14.6 30.44 16.2934 28.3734 16.36Z" fill="#2587E3"/>
<path opacity="0.4" d="M32.72 25.6C31.2266 26.6 29.1333 26.9733 27.2 26.72C27.7066 25.6266 27.9733 24.4133 27.9866 23.1333C27.9866 21.8 27.6933 20.5333 27.1333 19.4267C29.1066 19.16 31.2 19.5333 32.7066 20.5333C34.8133 21.92 34.8133 24.2 32.72 25.6Z" fill="#2587E3"/>
<path opacity="0.4" d="M13.5867 16.36C13.68 16.3467 13.7734 16.3467 13.8667 16.36C15.9334 16.2934 17.5734 14.6 17.5734 12.52C17.5734 10.4 15.8534 8.66669 13.72 8.66669C11.6 8.66669 9.8667 10.3867 9.8667 12.52C9.88003 14.6 11.52 16.2934 13.5867 16.36Z" fill="#2587E3"/>
<path opacity="0.4" d="M13.7332 23.1333C13.7332 24.4267 14.0132 25.6533 14.5199 26.76C12.6399 26.96 10.6799 26.56 9.23991 25.6133C7.13325 24.2133 7.13325 21.9333 9.23991 20.5333C10.6666 19.5733 12.6799 19.1867 14.5732 19.4C14.0266 20.52 13.7332 21.7867 13.7332 23.1333Z" fill="#2587E3"/>
<path d="M21.1599 27.16C21.0532 27.1467 20.9332 27.1467 20.8132 27.16C18.3599 27.08 16.3999 25.0667 16.3999 22.5867C16.3999 20.0533 18.4399 18 20.9866 18C23.5199 18 25.5732 20.0533 25.5732 22.5867C25.5732 25.0667 23.6266 27.08 21.1599 27.16Z" fill="#2587E3"/>
<path d="M16.8267 29.92C14.8133 31.2667 14.8133 33.48 16.8267 34.8134C19.12 36.3467 22.88 36.3467 25.1733 34.8134C27.1867 33.4667 27.1867 31.2534 25.1733 29.92C22.8933 28.3867 19.1333 28.3867 16.8267 29.92Z" fill="#2587E3"/>
</svg>
