<svg width="37" height="38" viewBox="0 0 37 38" fill="none" xmlns="http://www.w3.org/2000/svg">
<circle cx="11" cy="11" r="11" fill="#2587E3" fill-opacity="0.2"/>
<path opacity="0.4" d="M34.3334 16.4133V26.2133C33.9467 26.0266 33.5201 25.8933 33.0401 25.8133L32.6267 25.7466L32.2801 25.0266C31.5467 23.5333 30.3467 22.6666 29.0001 22.6666C27.6534 22.6666 26.4534 23.5333 25.7201 25.0266L25.3601 25.7466L24.9601 25.8133C23.3734 26.08 22.2267 26.96 21.8134 28.2133C21.4134 29.48 21.8267 30.8666 22.9601 32.0133L23.3734 32.4266L23.3334 32.5866C23.0667 33.7733 23.1734 34.68 23.4268 35.3333H15.4134C10.5601 35.3333 7.66675 32.44 7.66675 27.5866V16.4133C7.66675 11.56 10.5601 8.66663 15.4134 8.66663H26.5868C31.4401 8.66663 34.3334 11.56 34.3334 16.4133Z" fill="#2587E3"/>
<path d="M30.4933 25.92L30.92 26.7867C31.1333 27.2134 31.68 27.6134 32.1333 27.6934L32.7066 27.7867C34.4533 28.08 34.8533 29.36 33.6133 30.6134L33.08 31.1467C32.72 31.5067 32.5333 32.2 32.64 32.7067L32.7066 33.0267C33.1866 35.1334 32.0666 35.9467 30.2399 34.84L29.8533 34.6C29.3866 34.32 28.6133 34.32 28.1466 34.6L27.76 34.84C25.92 35.9467 24.8133 35.1334 25.2933 33.0267L25.3599 32.7067C25.4666 32.2134 25.28 31.5067 24.92 31.1467L24.3866 30.6134C23.1466 29.3467 23.5466 28.08 25.2933 27.7867L25.8666 27.6934C26.3333 27.6134 26.8666 27.2134 27.08 26.7867L27.5066 25.92C28.3333 24.2534 29.6666 24.2534 30.4933 25.92Z" fill="#2587E3"/>
<path fill-rule="evenodd" clip-rule="evenodd" d="M26.506 16.5563C26.9425 16.8946 27.0221 17.5228 26.6837 17.9593L23.5978 21.9402C22.8046 22.9433 21.3422 23.1263 20.3219 22.3379L20.3149 22.3325L17.8795 20.4161C17.7291 20.3018 17.5192 20.3302 17.4049 20.4776C17.4048 20.4778 17.405 20.4775 17.4049 20.4776L14.2322 24.5968C13.8952 25.0344 13.2673 25.1159 12.8298 24.7789C12.3922 24.4418 12.3107 23.8139 12.6477 23.3764L15.822 19.2552C16.6139 18.2304 18.0822 18.0452 19.1048 18.8353L19.1117 18.8407L21.5472 20.7571C21.6992 20.8726 21.9135 20.8429 22.0269 20.7022L25.103 16.7339C25.4414 16.2974 26.0695 16.2179 26.506 16.5563Z" fill="#2587E3"/>
</svg>
