<svg width="37" height="38" viewBox="0 0 37 38" fill="none" xmlns="http://www.w3.org/2000/svg">
<circle cx="11" cy="11" r="11" fill="#2587E3" fill-opacity="0.2"/>
<path opacity="0.4" d="M29 33.3334H27.6667V33C27.6667 31.5334 26.4667 30.3334 25 30.3334H22V27.28C21.6667 27.32 21.3333 27.3334 21 27.3334C20.6667 27.3334 20.3333 27.32 20 27.28V30.3334H17C15.5333 30.3334 14.3333 31.5334 14.3333 33V33.3334H13C12.4533 33.3334 12 33.7867 12 34.3334C12 34.88 12.4533 35.3334 13 35.3334H29C29.5467 35.3334 30 34.88 30 34.3334C30 33.7867 29.5467 33.3334 29 33.3334Z" fill="#2587E3"/>
<path opacity="0.4" d="M12.36 21.52C11.48 21.1866 10.7067 20.64 10.0934 20.0266C8.85337 18.6533 8.04004 17.0133 8.04004 15.0933C8.04004 13.1733 9.54671 11.6666 11.4667 11.6666H12.2134C11.8667 12.3733 11.6667 13.16 11.6667 14V18C11.6667 19.2533 11.9067 20.44 12.36 21.52Z" fill="#2587E3"/>
<path opacity="0.4" d="M33.9599 15.0933C33.9599 17.0133 33.1466 18.6533 31.9066 20.0266C31.2932 20.64 30.5199 21.1866 29.6399 21.52C30.0932 20.44 30.3332 19.2533 30.3332 18V14C30.3332 13.16 30.1332 12.3733 29.7866 11.6666H30.5332C32.4532 11.6666 33.9599 13.1733 33.9599 15.0933Z" fill="#2587E3"/>
<path d="M25.0001 8.66663H17.0001C14.0534 8.66663 11.6667 11.0533 11.6667 14V18C11.6667 23.16 15.8401 27.3333 21.0001 27.3333C26.1601 27.3333 30.3334 23.16 30.3334 18V14C30.3334 11.0533 27.9467 8.66663 25.0001 8.66663ZM24.7867 17.2666L23.9601 18.28C23.8267 18.4266 23.7334 18.72 23.7467 18.92L23.8267 20.2266C23.8801 21.0266 23.3067 21.44 22.5601 21.1466L21.3467 20.6666C21.1601 20.6 20.8401 20.6 20.6534 20.6666L19.4401 21.1466C18.6934 21.44 18.1201 21.0266 18.1734 20.2266L18.2534 18.92C18.2667 18.72 18.1734 18.4266 18.0401 18.28L17.2134 17.2666C16.6934 16.6533 16.9201 15.9733 17.6934 15.7733L18.9601 15.4533C19.1601 15.4 19.4001 15.2133 19.5067 15.04L20.2134 13.9466C20.6534 13.2666 21.3467 13.2666 21.7867 13.9466L22.4934 15.04C22.6001 15.2133 22.8401 15.4 23.0401 15.4533L24.3067 15.7733C25.0801 15.9733 25.3067 16.6533 24.7867 17.2666Z" fill="#2587E3"/>
<path opacity="0.4" d="M24.7867 17.2666L23.96 18.28C23.8267 18.4266 23.7333 18.72 23.7467 18.92L23.8267 20.2266C23.88 21.0266 23.3067 21.44 22.56 21.1466L21.3467 20.6666C21.16 20.6 20.84 20.6 20.6533 20.6666L19.44 21.1466C18.6933 21.44 18.12 21.0266 18.1733 20.2266L18.2533 18.92C18.2667 18.72 18.1733 18.4266 18.04 18.28L17.2133 17.2666C16.6933 16.6533 16.92 15.9733 17.6933 15.7733L18.96 15.4533C19.16 15.4 19.4 15.2133 19.5067 15.04L20.2133 13.9466C20.6533 13.2666 21.3467 13.2666 21.7867 13.9466L22.4933 15.04C22.6 15.2133 22.84 15.4 23.04 15.4533L24.3067 15.7733C25.08 15.9733 25.3067 16.6533 24.7867 17.2666Z" fill="#2587E3"/>
</svg>
