<svg width="37" height="38" viewBox="0 0 37 38" fill="none" xmlns="http://www.w3.org/2000/svg">
<circle cx="11" cy="11" r="11" fill="#2587E3" fill-opacity="0.2"/>
<path opacity="0.4" d="M31.6666 18V21.8933L30.6266 21.2933C29.7733 20.8 28.7066 20.9466 28.0133 21.6133C27.8666 21.7466 27.7466 21.9066 27.6399 22.08L27.5599 22.2266C27.4133 22.48 27.2933 22.5466 27.2799 22.56C27.2533 22.5466 27.1199 22.48 26.9733 22.2133L26.8933 22.08C26.5999 21.5733 26.1333 21.2266 25.5733 21.08C24.9999 20.92 24.4133 21 23.9199 21.2933L22.7066 22C22.1599 22.3066 21.7733 22.8133 21.6133 23.4133C21.4533 24.0266 21.5333 24.6533 21.8399 25.2C21.9866 25.44 21.9866 25.5866 21.9866 25.6133C21.9733 25.6266 21.8399 25.7066 21.5466 25.7066C20.2533 25.7066 19.1999 26.76 19.1999 28.04V29.2933C19.1999 30.5733 20.2533 31.6266 21.5466 31.6266C21.8399 31.6266 21.9733 31.7066 21.9733 31.72C21.9866 31.7333 21.9866 31.8933 21.8399 32.1333C21.7466 32.3066 21.6666 32.48 21.6266 32.6666H16.9999C13.3199 32.6666 10.3333 29.68 10.3333 26V18C10.3333 14.32 13.3199 11.3333 16.9999 11.3333H24.9999C28.6799 11.3333 31.6666 14.32 31.6666 18Z" fill="#2587E3"/>
<path d="M28.0132 18.9867V21.6134C27.8666 21.7467 27.7466 21.9067 27.6399 22.08L27.5599 22.2267C27.4132 22.48 27.2932 22.5467 27.2799 22.56C27.2532 22.5467 27.1199 22.48 26.9732 22.2134L26.8932 22.08C26.5999 21.5734 26.1332 21.2267 25.5732 21.08C24.9999 20.92 24.4132 21 23.9199 21.2934L22.7066 22C22.1599 22.3067 21.7732 22.8134 21.6132 23.4134C21.4532 24.0267 21.5332 24.6534 21.8399 25.2C21.9866 25.44 21.9866 25.5867 21.9866 25.6134C21.9732 25.6267 21.8399 25.7067 21.5466 25.7067C20.2532 25.7067 19.1999 26.76 19.1999 28.04V29.0134H17.9866C15.7866 29.0134 13.9866 27.2134 13.9866 25.0134V18.9867C13.9866 16.7867 15.7866 14.9867 17.9866 14.9867H24.0132C26.2132 14.9867 28.0132 16.7867 28.0132 18.9867Z" fill="#2587E3"/>
<path d="M17.0801 9.66669V11.3334H17.0001C16.3334 11.3334 15.6934 11.4267 15.0801 11.6134V9.66669C15.0801 9.12002 15.5201 8.66669 16.0801 8.66669C16.6267 8.66669 17.0801 9.12002 17.0801 9.66669Z" fill="#2587E3"/>
<path d="M22 9.66669V11.3334H20V9.66669C20 9.12002 20.4533 8.66669 21 8.66669C21.5467 8.66669 22 9.12002 22 9.66669Z" fill="#2587E3"/>
<path d="M26.9334 9.66669V11.6134C26.32 11.4267 25.6667 11.3334 25 11.3334H24.9333V9.66669C24.9333 9.12002 25.3867 8.66669 25.9333 8.66669C26.48 8.66669 26.9334 9.12002 26.9334 9.66669Z" fill="#2587E3"/>
<path d="M34.3334 17.0667C34.3334 17.6267 33.8934 18.0667 33.3334 18.0667H31.6667V18C31.6667 17.3333 31.5734 16.68 31.3867 16.0667H33.3334C33.8934 16.0667 34.3334 16.52 34.3334 17.0667Z" fill="#2587E3"/>
<path d="M17.0801 32.6667V34.3333C17.0801 34.88 16.6267 35.3333 16.0801 35.3333C15.5201 35.3333 15.0801 34.88 15.0801 34.3333V32.3867C15.6934 32.5733 16.3334 32.6667 17.0001 32.6667H17.0801Z" fill="#2587E3"/>
<path d="M10.6134 16.0667C10.4267 16.68 10.3334 17.3333 10.3334 18V18.0667H8.66675C8.12008 18.0667 7.66675 17.6267 7.66675 17.0667C7.66675 16.52 8.12008 16.0667 8.66675 16.0667H10.6134Z" fill="#2587E3"/>
<path d="M10.3334 21V23H8.66675C8.12008 23 7.66675 22.5467 7.66675 22C7.66675 21.44 8.12008 21 8.66675 21H10.3334Z" fill="#2587E3"/>
<path d="M10.6134 27.9334H8.66675C8.12008 27.9334 7.66675 27.48 7.66675 26.9333C7.66675 26.3733 8.12008 25.9333 8.66675 25.9333H10.3334V26C10.3334 26.6667 10.4267 27.32 10.6134 27.9334Z" fill="#2587E3"/>
<path opacity="0.4" d="M32.9866 26.7066C32.08 26.7066 31.56 26.2533 31.56 25.5866C31.56 25.32 31.64 25.0133 31.8266 24.6933C32.2 24.0533 31.9733 23.2266 31.3333 22.8666L30.12 22.16C29.56 21.8266 28.84 22.0266 28.5066 22.5866L28.4266 22.72C27.7866 23.8266 26.7466 23.8266 26.1066 22.72L26.0266 22.5866C25.7066 22.0266 24.9733 21.8266 24.4266 22.16L23.2 22.8666C22.7733 23.1066 22.52 23.56 22.52 24.0266C22.52 24.2533 22.5866 24.48 22.7066 24.6933C22.8933 25.0133 22.9866 25.32 22.9866 25.5866C22.9866 26.2533 22.4533 26.7066 21.5466 26.7066C20.8133 26.7066 20.2 27.3066 20.2 28.04V29.2933C20.2 30.0266 20.8133 30.6266 21.5466 30.6266C22.4533 30.6266 22.9866 31.08 22.9866 31.7466C22.9866 32.0133 22.8933 32.32 22.7066 32.64C22.3333 33.28 22.56 34.1066 23.2 34.4666L24.4266 35.1733C24.9733 35.5066 25.7066 35.3066 26.0266 34.7466L26.1066 34.6133C26.7466 33.5066 27.7866 33.5066 28.4266 34.6133L28.5066 34.7466C28.84 35.3066 29.56 35.5066 30.12 35.1733L31.3333 34.4666C31.76 34.2266 32.0133 33.7733 32.0133 33.3066C32.0133 33.08 31.9466 32.8533 31.8266 32.64C31.64 32.32 31.56 32.0133 31.56 31.7466C31.56 31.08 32.08 30.6266 32.9866 30.6266C33.7333 30.6266 34.3333 30.0266 34.3333 29.2933V28.04C34.3333 27.3066 33.7333 26.7066 32.9866 26.7066ZM27.2666 30.96C26 30.96 24.9733 29.9333 24.9733 28.6666C24.9733 27.4 26 26.3733 27.2666 26.3733C28.5333 26.3733 29.56 27.4 29.56 28.6666C29.56 29.9333 28.5333 30.96 27.2666 30.96Z" fill="#2587E3"/>
<path d="M29.5601 28.6667C29.5601 29.9334 28.5334 30.96 27.2667 30.96C26.0001 30.96 24.9734 29.9334 24.9734 28.6667C24.9734 27.4 26.0001 26.3734 27.2667 26.3734C28.5334 26.3734 29.5601 27.4 29.5601 28.6667Z" fill="#2587E3"/>
</svg>
