<svg width="33" height="32" viewBox="0 0 33 32" fill="none" xmlns="http://www.w3.org/2000/svg">
<rect x="0.568604" width="32" height="32" rx="16" fill="url(#paint0_linear_58_751)" fill-opacity="0.1"/>
<rect x="0.968604" y="0.4" width="31.2" height="31.2" rx="15.6" stroke="url(#paint1_linear_58_751)" stroke-opacity="0.24" stroke-width="0.8"/>
<g clip-path="url(#clip0_58_751)">
<path d="M23.9224 12.8533L22.0536 14.7221C21.6761 19.0983 17.9855 22.4996 13.5686 22.4996C12.6611 22.4996 11.913 22.3558 11.3449 22.0721C10.8868 21.8427 10.6993 21.5971 10.6524 21.5271C10.6106 21.4644 10.5835 21.3931 10.5731 21.3184C10.5628 21.2438 10.5694 21.1678 10.5925 21.0961C10.6157 21.0244 10.6547 20.9589 10.7068 20.9044C10.7588 20.8499 10.8225 20.8079 10.893 20.7814C10.9093 20.7752 12.408 20.1996 13.3599 19.1039C12.832 18.6699 12.3712 18.1602 11.9924 17.5914C11.2174 16.4408 10.3499 14.4421 10.6174 11.4552C10.6259 11.3603 10.6613 11.2698 10.7195 11.1943C10.7777 11.1189 10.8562 11.0616 10.9459 11.0293C11.0355 10.997 11.1325 10.991 11.2255 11.0119C11.3184 11.0329 11.4034 11.08 11.4705 11.1477C11.4924 11.1696 13.5505 13.2164 16.0668 13.8802V13.4996C16.0658 13.1004 16.1447 12.7051 16.2989 12.337C16.453 11.9688 16.6792 11.6352 16.9643 11.3558C17.2411 11.0794 17.5704 10.8612 17.9329 10.7141C18.2954 10.5671 18.6837 10.4941 19.0749 10.4996C19.5996 10.5047 20.1141 10.6456 20.5682 10.9084C21.0224 11.1713 21.4009 11.5472 21.6668 11.9996H23.5686C23.6676 11.9995 23.7643 12.0288 23.8466 12.0837C23.9289 12.1386 23.9931 12.2167 24.0309 12.3082C24.0688 12.3996 24.0787 12.5002 24.0594 12.5972C24.0401 12.6942 23.9924 12.7834 23.9224 12.8533Z" fill="url(#paint2_linear_58_751)"/>
</g>
<defs>
<linearGradient id="paint0_linear_58_751" x1="0.568604" y1="16" x2="32.5686" y2="16" gradientUnits="userSpaceOnUse">
<stop stop-color="#2587E3"/>
<stop offset="1" stop-color="#54D923"/>
</linearGradient>
<linearGradient id="paint1_linear_58_751" x1="0.568604" y1="16" x2="32.5686" y2="16" gradientUnits="userSpaceOnUse">
<stop stop-color="#2587E3"/>
<stop offset="1" stop-color="#54D923"/>
</linearGradient>
<linearGradient id="paint2_linear_58_751" x1="10.5679" y1="16.4994" x2="24.069" y2="16.4994" gradientUnits="userSpaceOnUse">
<stop stop-color="#2587E3"/>
<stop offset="1" stop-color="#54D923"/>
</linearGradient>
<clipPath id="clip0_58_751">
<rect width="16" height="16" fill="white" transform="translate(8.5686 8)"/>
</clipPath>
</defs>
</svg>
