<svg width="32" height="32" viewBox="0 0 32 32" fill="none" xmlns="http://www.w3.org/2000/svg">
<rect width="32" height="32" rx="16" fill="url(#paint0_linear_58_739)" fill-opacity="0.1"/>
<rect x="0.4" y="0.4" width="31.2" height="31.2" rx="15.6" stroke="url(#paint1_linear_58_739)" stroke-opacity="0.24" stroke-width="0.8"/>
<path fill-rule="evenodd" clip-rule="evenodd" d="M21.4316 10.5366C19.9905 9.09379 18.0739 8.29895 16.0321 8.2981C11.8248 8.2981 8.40068 11.722 8.39897 15.9305C8.39846 17.2758 8.74984 18.5888 9.41785 19.7465L8.33496 23.7019L12.3814 22.6404C13.4962 23.2485 14.7515 23.569 16.029 23.5694H16.0321C16.0319 23.5694 16.0322 23.5694 16.0321 23.5694C20.2388 23.5694 23.6632 20.1451 23.665 15.9365C23.6658 13.897 22.8727 11.9794 21.4316 10.5366ZM12.9323 16.2083C12.837 16.0809 12.1536 15.1742 12.1536 14.2354C12.1536 13.2966 12.6463 12.8352 12.8211 12.6444C12.9958 12.4535 13.2026 12.4058 13.3297 12.4058C13.4569 12.4058 13.5842 12.407 13.6953 12.4124C13.8124 12.4184 13.9697 12.3679 14.1244 12.7399C14.2834 13.1217 14.6647 14.0606 14.7125 14.156C14.7602 14.2515 14.7919 14.3627 14.7284 14.4901C14.6649 14.6172 14.633 14.6968 14.5377 14.8082C14.4424 14.9197 14.3375 15.0569 14.2515 15.1423C14.156 15.2375 14.0566 15.3407 14.1679 15.5315C14.2791 15.7225 14.6618 16.3471 15.2288 16.8528C15.9573 17.5027 16.5719 17.704 16.7625 17.7995C16.9532 17.895 17.0644 17.8791 17.1757 17.7517C17.2869 17.6244 17.6525 17.1948 17.7797 17.004C17.9069 16.8131 18.034 16.845 18.2088 16.9085C18.3837 16.9721 19.3213 17.4336 19.5119 17.5289C19.7026 17.6244 19.8298 17.6721 19.8775 17.7517C19.9253 17.8313 19.9253 18.2132 19.7663 18.6587C19.6073 19.1042 18.8453 19.5108 18.4789 19.5654C18.1502 19.6146 17.7345 19.6351 17.2775 19.4898C17.0006 19.402 16.6453 19.2846 16.1902 19.0881C14.2772 18.2619 13.0278 16.3356 12.9323 16.2083Z" fill="url(#paint2_linear_58_739)"/>
<defs>
<linearGradient id="paint0_linear_58_739" x1="0" y1="16" x2="32" y2="16" gradientUnits="userSpaceOnUse">
<stop stop-color="#2587E3"/>
<stop offset="1" stop-color="#54D923"/>
</linearGradient>
<linearGradient id="paint1_linear_58_739" x1="0" y1="16" x2="32" y2="16" gradientUnits="userSpaceOnUse">
<stop stop-color="#2587E3"/>
<stop offset="1" stop-color="#54D923"/>
</linearGradient>
<linearGradient id="paint2_linear_58_739" x1="8.33496" y1="16" x2="23.665" y2="16" gradientUnits="userSpaceOnUse">
<stop stop-color="#2587E3"/>
<stop offset="1" stop-color="#54D923"/>
</linearGradient>
</defs>
</svg>
