<svg width="52" height="52" viewBox="0 0 52 52" fill="none" xmlns="http://www.w3.org/2000/svg">
<rect width="52" height="52" rx="8" fill="url(#paint0_linear_99_21)"/>
<path opacity="0.4" d="M32.285 11H19.73C14.255 11 11 14.255 11 19.715V32.27C11 37.73 14.255 40.985 19.715 40.985H32.27C37.73 40.985 40.985 37.73 40.985 32.27V19.715C41 14.255 37.745 11 32.285 11Z" fill="white"/>
<path d="M34.9999 24.065C34.7599 24.065 34.5199 23.99 34.3099 23.825C29.2549 19.925 22.7299 19.925 17.6899 23.825C17.1949 24.2 16.4899 24.11 16.1149 23.63C15.7399 23.135 15.8299 22.43 16.3099 22.055C22.1899 17.51 29.7949 17.51 35.6899 22.055C36.1849 22.43 36.2749 23.135 35.8849 23.63C35.6749 23.915 35.3299 24.065 34.9999 24.065Z" fill="white"/>
<path d="M32.5999 28.7C32.3599 28.7 32.1199 28.625 31.9099 28.46C28.3099 25.685 23.6749 25.685 20.0749 28.46C19.5799 28.835 18.8749 28.745 18.4999 28.265C18.1249 27.785 18.2149 27.065 18.6949 26.69C23.1199 23.27 28.8499 23.27 33.2749 26.69C33.7699 27.065 33.8599 27.77 33.4699 28.265C33.2749 28.55 32.9449 28.7 32.5999 28.7Z" fill="white"/>
<path d="M29.3 33.335C29.06 33.335 28.82 33.26 28.61 33.095C27.02 31.865 24.965 31.865 23.375 33.095C22.88 33.47 22.175 33.38 21.8 32.9C21.425 32.405 21.515 31.7 21.995 31.325C24.38 29.48 27.59 29.48 29.975 31.325C30.47 31.7 30.56 32.405 30.17 32.9C29.975 33.185 29.645 33.335 29.3 33.335Z" fill="white"/>
<defs>
<linearGradient id="paint0_linear_99_21" x1="0" y1="26" x2="52" y2="26" gradientUnits="userSpaceOnUse">
<stop stop-color="#2587E3"/>
<stop offset="1" stop-color="#54D923"/>
</linearGradient>
</defs>
</svg>
